<?xml version="1.0" encoding="UTF-8"?>
<svg id="Layer_1" data-name="Layer 1" xmlns="http://www.w3.org/2000/svg" viewBox="0 0 878.78 773.17">
  <defs>
    <style>
      .cls-1 {
        fill: #ff4a56;
      }

      .cls-1, .cls-2, .cls-3 {
        stroke-width: 0px;
      }

      .cls-2 {
        fill: #00e6b0;
      }

      .cls-3 {
        fill: #009cff;
      }
    </style>
  </defs>
  <rect class="cls-2" x="415.53" y="106" width="34" height="400"/>
  <path class="cls-2" d="M386.53,108.31L433.5,0l45.13,108.31c-5.3,4.06-20.97,14.99-43.82,15.66-25.58.75-43.28-11.83-48.28-15.66Z"/>
  <rect class="cls-1" x="596.8" y="421.3" width="34" height="400" transform="translate(1459.5 403.27) rotate(120.2)"/>
  <path class="cls-1" d="M808.8,677.97l69.99,95.08-116.31-15.47c-.85-6.62-2.41-25.66,8.51-45.75,12.21-22.49,31.99-31.46,37.82-33.86Z"/>
  <rect class="cls-3" x="239.62" y="415.69" width="34" height="400" transform="translate(-142.26 1150.32) rotate(-120.65)"/>
  <path class="cls-3" d="M117.13,758.37L0,773.17l70.18-94.03c6.2,2.49,23.58,10.4,35.81,29.72,13.69,21.62,11.89,43.26,11.14,49.52Z"/>
  <polygon class="cls-1" points="379.53 477 432.53 449.32 432.53 512.52 379.53 477"/>
  <polygon class="cls-1" points="378.14 547.01 432.53 512.52 379.53 477 378.14 547.01"/>
  <polygon class="cls-2" points="432.53 578.43 432.53 512.52 378.14 547.01 432.53 578.43"/>
  <polygon class="cls-3" points="484.18 477.39 432.53 449.71 432.53 512.91 484.18 477.39"/>
  <polygon class="cls-3" points="485.53 547.4 432.53 512.91 484.18 477.39 485.53 547.4"/>
  <polygon class="cls-2" points="432.53 578.82 432.53 512.91 485.53 547.4 432.53 578.82"/>
</svg>